<svg width="319" height="137" viewBox="0 0 319 137" fill="none" xmlns="http://www.w3.org/2000/svg">
<mask id="mask0_3_709" style="mask-type:alpha" maskUnits="userSpaceOnUse" x="0" y="0" width="319" height="137">
<rect width="319" height="137" rx="16" fill="#182A88"/>
</mask>
<g mask="url(#mask0_3_709)">
<path fill-rule="evenodd" clip-rule="evenodd" d="M295.346 -91.64C312.695 -96.7396 331.389 -86.6312 345.814 -75.7074C360.064 -64.9162 368.131 -48.5951 374.349 -31.8141C380.821 -14.3483 389.663 5.1489 382.079 22.1592C374.597 38.9399 352.99 42.3173 337.16 51.5963C323.311 59.7138 311.389 72.8968 295.346 72.9991C279.267 73.1017 263.84 64.166 253.144 52.1321C243.551 41.3382 246.578 24.9259 240.835 11.666C234.111 -3.8594 211.324 -15.656 216.858 -31.6466C222.429 -47.7455 249.089 -40.9166 262.608 -51.2496C276.715 -62.0324 278.322 -86.6359 295.346 -91.64Z" fill="#00664F"/>
</g>
</svg>
